<?xml version="1.0" encoding="UTF-8"?>
<svg id="Layer_1" data-name="Layer 1" xmlns="http://www.w3.org/2000/svg" viewBox="0 0 144 144">
  <defs>
    <style>
      .cls-1 {
        fill: #fff;
        stroke-width: 0px;
      }
    </style>
  </defs>
  <path class="cls-1" d="m74.96,118.63h-5.82c-.47-.06-.94-.12-1.41-.16-2.55-.22-5.05-.66-7.52-1.32-8.43-2.24-15.72-6.47-21.74-12.78-7.81-8.16-12.12-17.91-12.95-29.19-.03-.35-.11-.7-.16-1.06,0-1.4,0-2.81,0-4.21.03-.14.07-.29.09-.43.09-.89.16-1.78.26-2.67.24-2.36.69-4.69,1.31-6.98,2.28-8.32,6.51-15.51,12.75-21.46,8.34-7.95,18.31-12.23,29.8-12.93,2.27-.14,4.53-.07,6.8.14,2.54.24,5.06.65,7.52,1.32,10.58,2.85,19.18,8.66,25.7,17.45,5.51,7.44,8.55,15.82,9,25.09,0,.16.05.32.07.48v4.21c-.02.14-.06.29-.07.43-.04.6-.05,1.19-.1,1.79-.22,2.65-.69,5.26-1.39,7.83-3.81,14.04-13.88,25.47-27.32,31.01-4.3,1.77-8.77,2.87-13.41,3.29-.47.04-.94.11-1.41.16Zm1.54-18.56c12.19-1.64,23.88-12.78,23.81-28.04-.07-15.78-13.16-28.58-29.15-28.1-15.42.46-28.13,13.45-27.35,29.63.73,15.03,12.61,25.07,23.78,26.49v-19.68c-1.2,0-2.38,0-3.55,0s-2.38,0-3.56,0c-.09-.64-.06-7.86.03-8.21.46,0,.94,0,1.41,0h2.82c.48,0,.96,0,1.43,0,.47,0,.94.02,1.43-.02,0-.16,0-.26,0-.37,0-2.01,0-4.03,0-6.04,0-1.2.14-2.38.46-3.54.72-2.68,2.22-4.77,4.72-6.05,1.65-.85,3.43-1.18,5.27-1.2,2.09-.02,4.17.19,6.24.48.11.02.22.06.32.1v6.93c-.17,0-.32.02-.46.02-1,0-2,0-3,0-.42,0-.84.03-1.25.09-1.75.25-2.93,1.34-3.3,3.07-.09.4-.13.83-.13,1.24-.01,1.64,0,3.28,0,4.92,0,.11.02.23.04.38h7.81c-.42,2.75-.84,5.46-1.26,8.2h-6.57v19.68Z"/>
</svg>