<?xml version="1.0" encoding="UTF-8"?>
<svg id="Layer_1" data-name="Layer 1" xmlns="http://www.w3.org/2000/svg" viewBox="0 0 144 144">
  <defs>
    <style>
      .cls-1 {
        fill: #fff;
        stroke-width: 0px;
      }
    </style>
  </defs>
  <path class="cls-1" d="m74.93,118.63h-5.73c-.49-.06-.97-.12-1.46-.16-2.55-.22-5.05-.66-7.52-1.32-7.22-1.91-13.64-5.34-19.2-10.32-6.78-6.08-11.41-13.51-13.9-22.28-1.05-3.69-1.54-7.47-1.72-11.29-.08-1.66.05-3.31.17-4.96.19-2.61.61-5.18,1.26-7.71,2.54-9.85,7.72-18.04,15.54-24.52,6.91-5.73,14.86-9.15,23.77-10.3,3-.39,6-.47,9.02-.27,2.79.18,5.54.6,8.25,1.29,8.55,2.17,15.93,6.41,22.08,12.73,6.13,6.3,10.16,13.75,12.1,22.33.5,2.23.88,4.48.96,6.77,0,.18.05.35.08.52v5.82c-.03.2-.07.41-.08.61-.02.28,0,.57-.03.85-.24,2.45-.65,4.87-1.26,7.26-3.75,14.62-14.48,26.62-28.58,31.97-3.98,1.51-8.09,2.47-12.33,2.84-.47.04-.94.11-1.41.16Zm-2.83-18.65s0,.07,0,.1c3.85-.08,7.7-.16,11.54-.26,1.7-.05,3.39-.26,5.04-.72,4.97-1.39,8.36-4.49,10.12-9.35.76-2.11,1.01-4.32,1.09-6.55.09-2.39.15-4.77.17-7.16.04-4.91.03-9.82-.15-14.73-.05-1.52-.17-3.04-.45-4.54-.36-1.92-.98-3.75-2.02-5.41-2.34-3.7-5.71-5.87-9.98-6.71-1.87-.37-3.76-.47-5.65-.52-2.04-.05-4.09-.1-6.13-.1-5.15-.02-10.3-.06-15.44.19-1.61.08-3.21.27-4.77.71-5.07,1.42-8.51,4.58-10.22,9.58-.7,2.04-.93,4.16-1.01,6.3-.09,2.39-.15,4.77-.17,7.16-.04,4.97-.03,9.94.15,14.9.07,1.9.24,3.78.72,5.62,1.04,4.01,3.34,7.08,6.93,9.16,2.24,1.29,4.7,1.88,7.25,2.06,2.01.15,4.02.22,6.04.25,2.31.04,4.63,0,6.94,0Z"/>
  <path class="cls-1" d="m72.07,49c1.42,0,2.83-.02,4.25,0,2.13.03,4.27.06,6.4.15,1.71.08,3.43.22,5.08.74,3.49,1.09,5.67,3.45,6.55,7,.32,1.31.45,2.64.55,3.98.27,3.46.17,6.92.17,10.38,0,2.09.04,4.18,0,6.27-.03,1.98-.09,3.97-.2,5.95-.08,1.4-.24,2.8-.64,4.15-1.05,3.48-3.35,5.7-6.86,6.64-1.2.32-2.43.45-3.67.55-2.43.21-4.86.23-7.29.24-2.15,0-4.3-.03-6.44-.04-.72,0-1.43.03-2.15.02-2.13-.04-4.27-.06-6.4-.15-1.58-.07-3.16-.21-4.69-.63-3.71-1.01-6.03-3.42-6.95-7.15-.33-1.32-.45-2.67-.55-4.03-.25-3.43-.17-6.86-.16-10.29,0-1.75-.03-3.49-.02-5.24.01-1.79.03-3.58.11-5.37.07-1.79.19-3.58.64-5.32.99-3.87,3.47-6.26,7.36-7.16,1.46-.34,2.94-.48,4.43-.54,2.01-.08,4.03-.12,6.04-.16,1.48-.02,2.95,0,4.43,0,0,0,0,.01,0,.02Zm14.35,23.02c.03-7.74-6.18-14.31-14.29-14.35-7.97-.04-14.38,6.37-14.41,14.33-.02,7.76,6.19,14.34,14.31,14.38,7.96.03,14.38-6.39,14.38-14.35Zm3.94-14.92c.02-1.86-1.47-3.38-3.32-3.38-1.81,0-3.31,1.48-3.33,3.28-.02,1.87,1.45,3.4,3.3,3.4,2.1,0,3.37-1.7,3.35-3.3Z"/>
  <path class="cls-1" d="m81.44,72.08c-.12,5.33-4.36,9.42-9.67,9.28-5.15-.14-9.24-4.52-9.05-9.71.18-4.92,4.33-9.17,9.67-8.99,4.91.16,9.03,4.16,9.04,9.42Z"/>
</svg>