<?xml version="1.0" encoding="UTF-8"?>
<svg id="Layer_1" data-name="Layer 1" xmlns="http://www.w3.org/2000/svg" viewBox="0 0 144 144">
  <defs>
    <style>
      .cls-1 {
        fill: #fff;
        stroke-width: 0px;
      }
    </style>
  </defs>
  <path class="cls-1" d="m68.3,46.35c1.14,0,2.27,0,3.41,0,1.22,0,2.44,0,3.65,0,.95,0,1.5-.49,1.49-1.38,0-.84-.58-1.33-1.43-1.34-2.39-.02-4.79-.02-7.18,0-.85,0-1.42.49-1.43,1.34,0,.9.55,1.39,1.49,1.38Z"/>
  <path class="cls-1" d="m58.72,92.22h26.28v-43.4h-26.28v43.4Zm4.08-40.72c6.07.05,12.15.02,18.22.03.4,0,.8.04,1.25.06v37.91h-20.81c-.02-.44-.06-.84-.06-1.23,0-11.78.01-23.56-.03-35.34,0-1.13.31-1.43,1.43-1.42Z"/>
  <path class="cls-1" d="m71.83,94.19c-1.76,0-3.19,1.38-3.22,3.14-.04,1.84,1.35,3.28,3.17,3.31,1.83.02,3.27-1.38,3.28-3.19,0-1.83-1.39-3.25-3.22-3.25Z"/>
  <path class="cls-1" d="m118.84,69.43c-.46-9.33-3.51-17.75-9.05-25.23-6.55-8.85-15.2-14.69-25.84-17.55-2.48-.67-5.01-1.09-7.56-1.32-2.28-.21-4.55-.28-6.83-.14-11.56.71-21.58,5.01-29.97,13-6.28,5.98-10.53,13.21-12.82,21.58-.63,2.3-1.08,4.64-1.32,7.02-.09.89-.17,1.79-.26,2.69-.01.15-.06.29-.09.44v4.23c.05.35.13.71.16,1.06.84,11.34,5.17,21.14,13.02,29.35,6.06,6.34,13.38,10.6,21.86,12.85,2.48.66,5,1.1,7.56,1.32.47.04.94.11,1.42.16h5.85c.47-.06.94-.12,1.42-.16,4.66-.42,9.16-1.52,13.48-3.3,13.52-5.57,23.64-17.06,27.47-31.18.7-2.58,1.18-5.2,1.4-7.87.05-.6.06-1.2.1-1.8,0-.15.05-.29.07-.44v-4.23c-.02-.16-.06-.32-.07-.48Zm-29.56,28.86c0,3.16-2.11,5.26-5.29,5.26-8.07,0-16.13,0-24.2,0-3.04,0-5.05-2.01-5.05-5.03,0-8.84,0-17.68,0-26.52h-.01c0-8.8,0-17.6,0-26.4,0-3.09,2.01-5.14,5.08-5.14,8.07,0,16.13,0,24.2,0,3.16,0,5.27,2.12,5.27,5.28,0,17.52,0,35.03,0,52.55Z"/>
</svg>