<?xml version="1.0" encoding="UTF-8"?>
<svg id="Layer_1" data-name="Layer 1" xmlns="http://www.w3.org/2000/svg" viewBox="0 0 144 144">
  <defs>
    <style>
      .cls-1 {
        fill: #fff;
        stroke-width: 0px;
      }
    </style>
  </defs>
  <path class="cls-1" d="m74.96,118.63h-5.82c-.47-.06-.94-.12-1.41-.16-2.55-.22-5.05-.66-7.52-1.32-8.43-2.24-15.72-6.47-21.74-12.78-7.81-8.16-12.12-17.91-12.95-29.19-.03-.35-.11-.7-.16-1.06,0-1.4,0-2.81,0-4.21.03-.14.07-.29.09-.43.09-.89.16-1.78.26-2.67.24-2.36.69-4.69,1.31-6.98,2.28-8.32,6.51-15.51,12.75-21.46,8.34-7.95,18.31-12.23,29.8-12.93,2.27-.14,4.53-.07,6.8.14,2.54.24,5.06.65,7.52,1.32,10.58,2.85,19.18,8.66,25.7,17.45,5.51,7.44,8.55,15.82,9,25.09,0,.16.05.32.07.48v4.21c-.02.14-.06.29-.07.43-.04.6-.05,1.19-.1,1.79-.22,2.65-.69,5.26-1.39,7.83-3.81,14.04-13.88,25.47-27.32,31.01-4.3,1.77-8.77,2.87-13.41,3.29-.47.04-.94.11-1.41.16Zm22.84-67.89c-.2.1-.3.15-.4.2-1.95,1.1-4.02,1.88-6.2,2.36-.33.07-.53.02-.78-.22-2.65-2.55-5.83-3.61-9.47-3.1-3.07.43-5.55,1.94-7.39,4.44-1.72,2.33-2.41,4.96-2.1,7.85.05.44.11.87.18,1.38-9.36-.66-17.03-4.55-23.09-11.69-.44.72-.74,1.45-.98,2.2-.24.77-.39,1.56-.47,2.36-.08.79-.09,1.59.04,2.36.13.79.29,1.59.55,2.34.26.74.6,1.47,1.01,2.13.42.68.93,1.32,1.47,1.91.53.57,1.15,1.05,1.77,1.61-1.78-.08-3.39-.57-4.96-1.39,0,1.91.4,3.65,1.27,5.27,1.64,3.07,4.2,4.96,7.67,5.81-.9.28-1.71.37-2.52.39-.81.01-1.62-.06-2.46-.09.49,1.49,1.25,2.79,2.28,3.94,1.04,1.16,2.27,2.06,3.69,2.71,1.39.64,2.85.95,4.38,1.07-4.8,3.7-10.23,5.17-16.25,4.66.05.09.06.12.08.13.09.06.17.12.26.17,4.68,2.86,9.77,4.38,15.24,4.62,2.96.13,5.9-.13,8.8-.78,5-1.12,9.45-3.35,13.32-6.72,7.03-6.12,11.35-15.7,11.05-25.34-.01-.34.09-.54.36-.74,1.87-1.41,3.49-3.08,4.87-4.97.08-.11.15-.23.22-.35-2.01.75-4.02,1.33-6.16,1.52,2.24-1.47,3.84-3.42,4.76-6.05Z"/>
</svg>