<?xml version="1.0" encoding="UTF-8"?>
<svg id="Layer_1" data-name="Layer 1" xmlns="http://www.w3.org/2000/svg" viewBox="0 0 144 144">
  <defs>
    <style>
      .cls-1 {
        fill: #fff;
        stroke-width: 0px;
      }
    </style>
  </defs>
  <path class="cls-1" d="m118.51,69.45c-.45-9.27-3.48-17.63-8.99-25.06-6.51-8.78-15.1-14.58-25.66-17.43-2.46-.66-4.97-1.08-7.51-1.32-2.26-.21-4.52-.27-6.79-.14-11.48.7-21.43,4.98-29.76,12.91-6.24,5.94-10.46,13.12-12.73,21.43-.63,2.29-1.07,4.61-1.31,6.97-.09.89-.17,1.78-.26,2.67-.01.15-.06.29-.09.43v4.2c.05.35.13.7.16,1.05.83,11.26,5.13,21,12.93,29.15,6.02,6.29,13.29,10.52,21.71,12.76,2.46.65,4.97,1.09,7.51,1.31.47.04.94.11,1.41.16h5.81c.47-.06.94-.12,1.41-.16,4.63-.41,9.09-1.51,13.39-3.28,13.43-5.53,23.48-16.94,27.28-30.97.7-2.56,1.17-5.17,1.39-7.81.05-.59.06-1.19.1-1.78,0-.15.05-.29.07-.43v-4.2c-.02-.16-.06-.32-.07-.48Zm-47.79.46c0,.43.02.84-.61.84-3.69-.01-7.38,0-11.2,0,.02-3.93.94-7.56,2.33-11.07,2.43.44,4.73.86,7.02,1.28.14.02.27.04.41.06q2.05.24,2.05,2.37c0,2.18,0,4.35,0,6.53Zm-.06-22.9v11.58c-2.77-.46-5.42-.89-8.28-1.36,2.13-4.08,4.79-7.35,8.28-10.22Zm-2.33-1.68c-3.47,3.11-6.25,6.68-8.49,10.93-2.22-1.22-4.35-2.39-6.64-3.65,4.42-4.17,9.38-6.55,15.13-7.29Zm-16.98,9.27c2.45,1.37,4.85,2.71,7.37,4.13-.09.24-.24.61-.37.99-1.19,3.3-1.96,6.68-2.15,10.19-.02.28-.33.79-.52.79-3.52.05-7.04.04-10.67.04.35-6.17,2.49-11.5,6.34-16.13Zm-6.34,18.75c2.08,0,4.05,0,6.01,0,1.45,0,2.91.01,4.36,0,.52,0,.82.08.85.72.18,3.76,1.02,7.37,2.42,10.86.06.15.07.33.09.4-2.46,1.38-4.86,2.72-7.39,4.13-3.83-4.57-5.97-9.91-6.34-16.11Zm8.26,18.07c2.2-1.22,4.35-2.41,6.63-3.68,2.3,4.34,5.15,7.93,8.8,11-4.03.23-11.72-3.4-15.43-7.32Zm17.38,5.43c-3.41-2.76-5.99-5.98-8.21-10.03,2.85-.47,5.47-.91,8.21-1.37v11.39Zm.08-14.74c0,.57-.11.83-.77.91-2.83.36-5.64.8-8.63,1.24-.95-.97-2.76-8.79-2.32-10.85.25-.02.52-.06.78-.06,3.32,0,6.64,0,9.95-.01.66,0,1,.11.99.9-.04,2.63-.03,5.25,0,7.88Zm28.22-11.38c-3.53,0-6.99.01-10.45-.03-.21,0-.59-.44-.61-.68-.21-3.94-1.11-7.71-2.57-11.35,2.42-1.36,4.81-2.71,7.25-4.09,3.11,2.43,6.82,11.63,6.37,16.16Zm-8.14-18.19c-2.26,1.26-4.38,2.44-6.45,3.58-1.38-2.03-2.56-3.99-3.97-5.76-1.41-1.77-3.04-3.37-4.66-5.15,5.76.85,10.69,3.23,15.08,7.33Zm-17.41-5.52c3.47,2.78,6.07,6.06,8.29,10.15-2.84.48-5.51.94-8.29,1.41v-11.57Zm-.04,14.86c0-.28.36-.75.62-.8,2.8-.55,5.62-1.03,8.43-1.52.1-.02.2,0,.38,0,1.48,3.52,2.29,7.18,2.43,11.17-2.95,0-5.78.01-8.61,0-1.06,0-2.45.28-3.07-.27-.53-.48-.2-1.94-.21-2.97-.02-1.87-.03-3.73.02-5.6Zm-.03,12.26c0-.47.05-.8.65-.8,3.69.01,7.39,0,11.22,0-.13,3.98-.99,7.63-2.48,11.14-1.75-.37-3.42-.77-5.11-1.08-1.12-.2-2.25-.32-3.39-.38-.64-.04-.91-.2-.9-.9.04-2.66.02-5.32.01-7.99Zm.09,22.73v-11.4c2.72.46,5.35.91,8.18,1.4-2.14,4-4.75,7.22-8.18,10Zm2.09,1.9c3.48-3.08,6.34-6.62,8.63-10.95,2.2,1.21,4.35,2.4,6.69,3.69-4.52,4.2-9.51,6.57-15.32,7.26Zm17.1-9.27c-2.41-1.36-4.81-2.71-7.23-4.08.53-1.8,1.19-3.69,1.62-5.62.41-1.81.58-3.68.84-5.52.07-.49.01-.95.76-.94,3.36.03,6.71.02,10.07.03.1,0,.19.06.28.09.5,4.21-2.96,12.92-6.34,16.04Z"/>
</svg>