<?xml version="1.0" encoding="utf-8"?>
<!-- Generator: Adobe Illustrator 27.9.0, SVG Export Plug-In . SVG Version: 6.00 Build 0)  -->
<svg version="1.1" id="Layer_1" xmlns="http://www.w3.org/2000/svg" xmlns:xlink="http://www.w3.org/1999/xlink" x="0px" y="0px"
	 viewBox="0 0 360 360" style="enable-background:new 0 0 360 360;" xml:space="preserve">
<style type="text/css">
	.st0{fill:none;stroke:#000000;stroke-width:6.9624;stroke-miterlimit:10;}
	.st1{fill:#F15A29;stroke:#FFFFFF;stroke-width:2.493;stroke-miterlimit:10;}
	.st2{fill:none;}
	.st3{fill:#FFFFFF;}
	.st4{fill:#F15A29;}
</style>
<g>
	<g>
		<path class="st0" d="M117.94,250.95v-91.61h20.69c6.88,0,12.14,1.01,16.07,3.09c4.01,2.13,6.87,5.49,8.49,9.98
			c1.54,4.29,2.32,9.85,2.32,16.53v32c0,6.75-0.78,12.38-2.31,16.73c-1.62,4.57-4.46,7.98-8.43,10.14
			c-3.85,2.1-9.22,3.16-15.95,3.16H117.94z M138.82,234c2.62,0,3.82-0.51,4.36-0.93c0.75-0.59,1.23-1.54,1.43-2.83
			c0.27-1.67,0.4-3.77,0.4-6.27v-38.41c0-2.47-0.16-4.48-0.48-5.96c-0.24-1.14-0.71-1.93-1.42-2.39c-0.46-0.3-1.64-0.8-4.39-0.8
			h-0.74V234H138.82z"/>
		<path class="st1" d="M119.7,249.23v-88.16h18.93c6.53,0,11.61,0.96,15.24,2.88c3.63,1.93,6.19,4.94,7.67,9.03
			c1.47,4.1,2.22,9.42,2.22,15.94v32c0,6.61-0.74,11.99-2.22,16.16c-1.48,4.17-4.02,7.24-7.62,9.19c-3.6,1.96-8.64,2.94-15.1,2.94
			H119.7z M136.23,235.73h2.59c2.53,0,4.34-0.43,5.45-1.3c1.1-0.87,1.8-2.18,2.07-3.92c0.28-1.74,0.42-3.91,0.42-6.53v-38.41
			c0-2.61-0.17-4.72-0.51-6.32c-0.34-1.59-1.06-2.75-2.17-3.48c-1.1-0.73-2.89-1.09-5.35-1.09h-2.5V235.73z"/>
		<path class="st0" d="M199.16,250.95l-2.5-18.61h-7.92l-2.58,18.61h-19.19l14.68-91.61h21.84l14.49,91.61H199.16z M194.67,217.24
			l-2-17.39l-2.01,17.39H194.67z"/>
		<path class="st1" d="M169.02,249.23l14.13-88.16h18.84l13.94,88.16H200.7l-2.5-18.61h-10.99l-2.59,18.61H169.02z M188.69,218.97
			h7.94l-3.97-34.39L188.69,218.97z"/>
		<path class="st0" d="M243.74,252.26c-6.03,0-10.9-1.34-14.48-3.98c-3.58-2.65-6.14-6.38-7.61-11.11
			c-1.4-4.54-2.11-9.93-2.11-16.02v-31.78c0-6.23,0.71-11.69,2.11-16.24c1.47-4.74,4.03-8.46,7.62-11.06
			c3.58-2.61,8.45-3.93,14.47-3.93c5.87,0,10.58,1.18,13.98,3.52c3.41,2.35,5.85,5.67,7.26,9.85c1.35,4,2.03,8.65,2.03,13.82v9.34
			h-19.66v-10.54c0-1.63-0.08-3.26-0.23-4.84c-0.12-1.28-0.47-2.35-1.04-3.16c-0.14-0.21-0.58-0.83-2.35-0.83
			c-1.53,0-2.12,0.54-2.43,0.94c-0.64,0.85-1.06,1.95-1.23,3.27c-0.21,1.54-0.31,3.2-0.31,4.95v41.46c0,1.83,0.13,3.55,0.4,5.11
			c0.22,1.31,0.65,2.34,1.28,3.09c0.31,0.37,0.88,0.85,2.3,0.85c1.5,0,2.01-0.48,2.26-0.84c0.56-0.8,0.92-1.91,1.08-3.28
			c0.18-1.59,0.27-3.25,0.27-4.93v-10.98h19.66v9.34c0,5.16-0.66,9.86-1.98,13.97c-1.37,4.28-3.78,7.72-7.18,10.22
			C254.46,250.99,249.71,252.26,243.74,252.26z"/>
		<path class="st1" d="M243.75,250.53c-5.67,0-10.15-1.21-13.44-3.64c-3.29-2.44-5.61-5.85-6.98-10.23
			c-1.35-4.39-2.03-9.56-2.03-15.51v-31.78c0-6.1,0.68-11.34,2.03-15.73c1.36-4.39,3.68-7.79,6.98-10.18
			c3.29-2.39,7.77-3.59,13.44-3.59c5.54,0,9.87,1.07,12.98,3.21c3.1,2.14,5.31,5.14,6.6,8.98s1.94,8.27,1.94,13.28v7.62H249.1v-8.81
			c0-1.74-0.08-3.41-0.23-5c-0.15-1.6-0.6-2.92-1.34-3.98c-0.74-1.05-2-1.58-3.79-1.58c-1.72,0-3,0.54-3.83,1.63
			c-0.83,1.09-1.35,2.45-1.57,4.08s-0.32,3.36-0.32,5.17v41.46c0,1.97,0.14,3.76,0.42,5.39c0.27,1.63,0.83,2.93,1.66,3.91
			c0.83,0.98,2.04,1.47,3.65,1.47c1.72,0,2.95-0.52,3.7-1.58c0.74-1.05,1.2-2.42,1.38-4.08c0.19-1.67,0.28-3.37,0.28-5.12v-9.25
			h16.16v7.62c0,5-0.63,9.49-1.89,13.45c-1.26,3.95-3.45,7.07-6.55,9.35C253.7,249.39,249.35,250.53,243.75,250.53z"/>
		<path class="st0" d="M300.86,250.95l-2.5-18.61h-7.92l-2.59,18.61h-19.19l14.69-91.61h21.84l14.49,91.61H300.86z M296.36,217.24
			l-2.01-17.39l-2.01,17.39H296.36z"/>
		<path class="st1" d="M270.71,249.23l14.13-88.16h18.84l13.94,88.16H302.4l-2.5-18.61h-10.99l-2.59,18.61H270.71z M290.38,218.97
			h7.94l-3.97-34.39L290.38,218.97z"/>
	</g>
	<g>
		<polygon class="st2" points="121.15,225.56 127.99,225.56 133.36,220.19 121.15,220.19 		"/>
		<polygon points="78.76,250.55 78.76,229.72 87.62,229.72 87.62,198.17 67.78,198.17 53.33,185.74 53.33,130.3 44.47,130.3 
			44.47,109.45 90.98,109.45 90.98,130.3 82.7,130.3 82.7,160 121.32,160 121.32,130.3 113.05,130.3 113.05,109.45 159.54,109.45 
			159.54,130.3 150.68,130.3 150.68,160 193.25,160 193.25,160.3 197.4,156.15 197.4,155.85 154.84,155.85 154.84,134.44 
			163.71,134.44 163.71,105.31 108.9,105.31 108.9,134.44 117.17,134.44 117.17,155.85 86.85,155.85 86.85,134.44 95.12,134.44 
			95.12,105.31 40.32,105.31 40.32,134.44 49.19,134.44 49.19,187.65 66.24,202.33 83.48,202.33 83.48,225.56 74.61,225.56 
			74.61,254.69 98.86,254.69 103,250.55 		"/>
		<polygon points="154.75,193.97 154.75,182.48 141.8,193.97 		"/>
		<polygon points="116.99,216.05 116.99,229.72 123.84,229.72 127.99,225.56 121.15,225.56 121.15,220.19 133.36,220.19 
			137.5,216.05 		"/>
		<polygon class="st3" points="158.96,194.59 155.38,198.17 158.96,198.17 		"/>
		<polygon class="st3" points="113.06,212.11 113.06,233.65 119.9,233.65 123.84,229.72 116.99,229.72 116.99,216.05 137.5,216.05 
			141.44,212.11 		"/>
		<path class="st3" d="M150.68,160v-29.7h8.86v-20.85h-46.49v20.85h8.27V160H82.7v-29.7h8.28v-20.85H44.47v20.85h8.87v55.44
			l14.45,12.43h19.85v31.54h-8.87v20.83H103l3.94-3.94H82.7v-12.96h8.87v-56.74H82.7v-12.97h38.63v12.97h-8.28v21.26h42.32
			l3.58-3.58v-17.68h-8.27v-12.97h38.62v0.3l3.94-3.94V160H150.68z M78.77,126.36v54.48h8.87v13.39h-18.4l-11.96-10.3v-57.57h-8.87
			v-12.97h38.62v12.97H78.77z M116.99,194.24v-13.39h8.27v-54.48h-8.27v-12.97h38.62v12.97h-8.87v57.57l-11.59,10.3H116.99z
			 M154.75,182.48v11.49H141.8L154.75,182.48z"/>
		<polygon class="st4" points="146.75,126.36 155.62,126.36 155.62,113.39 116.99,113.39 116.99,126.36 125.26,126.36 
			125.26,180.84 116.99,180.84 116.99,194.24 135.16,194.24 146.75,183.94 		"/>
		<polygon class="st4" points="87.03,113.39 48.41,113.39 48.41,126.36 57.28,126.36 57.28,183.94 69.23,194.24 87.63,194.24 
			87.63,180.84 78.77,180.84 78.77,126.36 87.03,126.36 		"/>
		<polygon class="st4" points="189.31,163.94 150.69,163.94 150.69,176.92 158.96,176.92 158.96,194.59 189.31,164.24 		"/>
		<polygon class="st4" points="113.06,233.65 113.06,212.11 141.44,212.11 155.38,198.17 113.06,198.17 113.06,176.92 
			121.33,176.92 121.33,163.94 82.7,163.94 82.7,176.92 91.57,176.92 91.57,233.65 82.7,233.65 82.7,246.61 106.94,246.61 
			119.9,233.65 		"/>
		<g>
			<polygon points="106.83,254.69 93.9,254.69 193.01,155.86 206.25,155.86 			"/>
		</g>
	</g>
</g>
</svg>
